include '../inc/notes.inc'

; measure 1-4
dw D5, C3, C3, C5, C3, C3, C5, C3, E5, D5, C5, D5, CONT, A2, A2, A2
dw A2, A2, C5, A2, D5, E5, A2, A2, E5, D5, C5, B4, CONT, A2, A2, A2
dw D5, E3, E3, C5, E3, E3, C5, E3, E5, D5, C5, D5, CONT, B2, B2, B2
dw B2, B2, C5, B2, D5, E5, B2, B2, D5, E5, D5, C5, CONT, B2, B2, B2

; repeat measure 1-4
dw D5, C3, C3, C5, C3, C3, C5, C3, E5, D5, C5, D5, CONT, A2, A2, A2
dw A2, A2, C5, A2, D5, E5, A2, A2, E5, D5, C5, B4, CONT, A2, A2, A2
dw D5, E3, E3, C5, E3, E3, C5, E3, E5, D5, C5, D5, CONT, B2, B2, B2
dw B2, B2, C5, B2, D5, E5, B2, B2, D5, E5, D5, C5, CONT, B2, B2, B2

; measure 5-8
dw G4, C3, C3, A4, C3, C3, C5, C3, D5, C3, E5, D5, CONT, CONT, C5, A2
dw A2, G4, A2, A2, A4, A2, C5, A2, G5, A2, E5, D5, CONT, CONT, C5, A2
dw G4, E3, E3, A4, E3, E3, C5, E3, D5, E3, E5, D5, CONT, CONT, C5, B2
dw B2, E5, B2, B2, D5, B2, C5, B2, B2, E5, B2, B2, D5, B2, C5, B2

; repeat measure 5-8
dw G4, C3, C3, A4, C3, C3, C5, C3, D5, C3, E5, D5, CONT, CONT, C5, A2
dw A2, G4, A2, A2, A4, A2, C5, A2, G5, A2, E5, D5, CONT, CONT, C5, A2
dw G4, E3, E3, A4, E3, E3, C5, E3, D5, E3, E5, D5, CONT, CONT, C5, B2
dw B2, E5, B2, B2, D5, B2, C5, B2, B2, E5, B2, B2, D5, B2, C5, B2

; measure 9-12
dw B4, C3, C3, B4, C3, C3, C5, C3, C3, C5, C3, F5, CONT, C3, E5, C3
dw B4, A2, A2, B4, A2, A2, C5, A2, A2, C5, A2, E5, CONT, A2, C5, A2
dw B4, E3, E3, B4, E3, E3, C5, E3, E3, C5, E3, F5, CONT, E3, E5, E3
dw G5, B2, B2, G5, B2, B2, F5, B2, B2, F5, B2, E5, B2, E5, B4, B2

; repeat measure 9-12
dw B4, C3, C3, B4, C3, C3, C5, C3, C3, C5, C3, F5, CONT, C3, E5, C3
dw B4, A2, A2, B4, A2, A2, C5, A2, A2, C5, A2, E5, CONT, A2, C5, A2
dw B4, E3, E3, B4, E3, E3, C5, E3, E3, C5, E3, F5, CONT, E3, E5, E3
dw G5, B2, B2, G5, B2, B2, F5, B2, B2, F5, B2, E5, B2, E5, B4, B2

dw ENDS